<svg xmlns="http://www.w3.org/2000/svg" viewBox="0 0 171.87 317.92"><defs><style>.cls-1{fill:#c4857c;}.cls-2{fill:#fbbb9e;}.cls-3{fill:#fed0b5;}.cls-4{fill:#e5a088;}.cls-5,.cls-6,.cls-7{opacity:0.5;}.cls-6{fill:#eb7376;}.cls-7{fill:#ffbd94;}.cls-8{fill:#65253e;}.cls-9{fill:#ca526a;}.cls-10{fill:#fc8597;}.cls-11{fill:#f6dde0;}.cls-12{fill:#a86a8a;}.cls-13{fill:#c68bac;}.cls-14{fill:#eeb6a2;}</style></defs><title>Asset 4</title><g id="Layer_2" data-name="Layer 2"><g id="OBJECTS"><path class="cls-1" d="M143.65,159.48a29.83,29.83,0,0,0,3.68-8.09c5,3.32,3.82,10.35,4,15.62,9.82-4.09,16.6-15.21,16.58-25.75,0-11.53-7.92-21.59-5.77-33.46,1.22-6.75,5.47-12.07,7.35-18.52,6.07-20.9-8.31-56.69-23.51-70.37C119.32-5.1,88.4-2.75,54.71,6.83,27.86,14.47-9.45,45.15,5.35,78.42c8.06,18.1,7.35,24.07-.75,41.88-5.6,12.32-1.72,28.47,7.47,38.11,2.06-4.08,6.74-7.2,10.77-9.25-.27,9.26,4.18,17.35,12.58,21,1.08-4.79,5.81-11,9.87-13.35,1.43,8.88,10.07,16,17.93,19.19,1.28-5.08,6.46-10.37,10.44-13.48,8.13,6.71,8.55,16.67,18.28,7.33,3-2.9,3.9-6.87,8-5.3,2.91,1.13,5.22,8.66,5.23,11.44,4-1.63,7.61-5.19,10.44-8.42,1.61-1.83,5.83-11,8.21-11.07,5.49-.22,5.7,11.67,5.13,15C134.47,170.61,140,165.25,143.65,159.48Z"/><path class="cls-2" d="M2.06,97.21c6-8.92,16-4.59,20.94,2.72,3.67,5.48,5.28,17.3-2.53,20.17-4.88,1.8-12.13-1.32-15.55-4.86C.35,110.5-1.94,103.12,2.06,97.21Z"/><path class="cls-2" d="M170,100.22c-5.72-9.13-15.86-5.16-21,2-3.87,5.34-5.9,17.1,1.8,20.25,4.81,2,12.17-.89,15.71-4.3C171.27,113.56,173.83,106.27,170,100.22Z"/><path class="cls-3" d="M154.38,34.43c-7.91-16-29.55-18.7-45.47-20.47C83.11,11.1,59,9,34.84,21.6,5.9,36.77,19.35,82,18.89,107.82c-.43,23.93,18.18,31.84,33.68,35.31s25.72,6,24.82,11.58-5.32,21.1,7,21.32h.37l.37,0c12.36.22,9-15.66,7.31-21.34-1.61-5.4,9.83-7.49,25.44-10.41,14.39-2.68,31-10.61,34.59-26.38,2-6.22,2.24-21.63,2.24-21.63,1.05-18,7.36-43,.44-60.06Q154.82,35.3,154.38,34.43Z"/><path class="cls-4" d="M90,110.4a7.36,7.36,0,0,1-3.15.91,8,8,0,0,1-3.38-.94c-1.38-.59-3.19-1.46-2-3.27.68-1.08,2-.81,3.07-.51a8.5,8.5,0,0,0,3.76.48c1.17-.25,2.31-1,3.52-1.1,1.56-.07,1.75,2,.94,3-.68.79-1.75,1-2.63,1.43Z"/><g class="cls-5"><path class="cls-6" d="M57.41,112.55c1.27-5.48-4.34-11.47-12.54-13.37s-15.88,1-17.16,6.47S32.06,117.12,40.26,119,56.14,118,57.41,112.55Z"/><ellipse class="cls-6" cx="44.11" cy="109.46" rx="7.55" ry="15.24" transform="translate(-72.49 127.67) rotate(-76.93)"/><path class="cls-7" d="M56.59,112.36C58,106.45,51.9,100,43.05,97.93s-17.13,1.08-18.5,7,4.68,12.37,13.53,14.43S55.21,118.27,56.59,112.36Z"/><path class="cls-6" d="M60.84,113.35C62.12,107.87,55,101.54,45,99.21s-19.18.23-20.45,5.71,5.82,11.81,15.84,14.14S59.57,118.83,60.84,113.35Z"/></g><g class="cls-5"><path class="cls-6" d="M117.61,113.63c-1.07-5.52,4.75-11.3,13-12.91s15.83,1.56,16.91,7.08-4.76,11.31-13,12.92S118.69,119.15,117.61,113.63Z"/><path class="cls-6" d="M116.05,113.94c-.8-4.1,5.25-8.72,13.52-10.33s15.6.4,16.4,4.5-5.25,8.72-13.52,10.33S116.84,118,116.05,113.94Z"/><ellipse class="cls-7" cx="134.58" cy="110.33" rx="16.45" ry="10.99" transform="translate(-18.61 27.76) rotate(-11.02)"/><path class="cls-6" d="M114.15,114.3c-1.07-5.52,6.24-11.59,16.34-13.56s19.16.92,20.24,6.44-6.24,11.6-16.34,13.56S115.23,119.83,114.15,114.3Z"/></g><path class="cls-8" d="M48.37,104.06c5.94-.65,4.64-11.38-1-11.57C39.75,92.23,42.48,104.7,48.37,104.06Z"/><path class="cls-8" d="M124.32,105.42c5.94-.65,4.64-11.38-1-11.57C115.7,93.59,118.43,106.06,124.32,105.42Z"/><path class="cls-9" d="M68.6,116.4c4.74,3.93,10.26,8.59,16.75,8.8a25.8,25.8,0,0,0,17.71-7.1c.38-.38.08-2.06-.47-1.5-5,5-11.7,7.83-18.78,6.7-5.93-1-9.94-5-15.15-7.52-.22-.11-.19.52-.06.62Z"/><path class="cls-9" d="M56,65.24a7.71,7.71,0,0,0-8.52-2.72,7,7,0,0,0-4.9,6.78c0,.5.57,1.82,1,.83,1.19-2.54,2.09-4.46,5.15-5a9.19,9.19,0,0,1,6.95,1.59c.54.37.47-1.21.28-1.45Z"/><path class="cls-9" d="M117.85,67.79a9.29,9.29,0,0,1,7-1.33c2.94.64,3.89,2.44,4.92,5,.35.89,1,.51,1.08-.32.76-7.39-9-10-13.31-4.79-.22.27-.2,1.78.35,1.43Z"/><path class="cls-1" d="M36.13,64c-3-8.43-2.81-21.2.13-29.52-.13,7.18,2.07,18,7.16,23.67,4.7,4.87,8.74,1.75,15.15.67a159.68,159.68,0,0,1,55.08-1.41,42.59,42.59,0,0,0,1.72-6.75c1.53,3.22,1.47,6.81,2.62,9.22,2.85-2.74,3.32-7.12,3.79-10.7,2.3,4.83.66,7.59,5.39,10.47,3.17,1.65,7.56,1.33,11.12,3,2.49-5.14,5-10.28,5.88-16.25,2.25,8,6.51,15.27,8.36,23.29,1.83,8.81-4.78,21.85,2.29,28,7.82-13.43,8.65-37.35,5.73-52.56C151.61-1.49,90.91-1.41,54.71,6.83,36,11.09,20.7,22.21,16.18,41.71c-2,8.73-1.71,18-1.46,26.87.24,8.57-2.34,18.86,3.1,26.36A35.38,35.38,0,0,0,25.61,69.8C25.05,60.18,21,50.32,25.37,41c-.63,1.35,1.6,11.53,2.17,13.1C29,58.15,32.6,61.47,36.13,64Z"/><path class="cls-10" d="M153,85a13.76,13.76,0,0,1,6.25-3.46c2.11-.61,4.82-.76,6.45-2.25s1.54-6.19-.74-7.23c-2.1-1-5.64.52-7.68,1.37a28.69,28.69,0,0,0-7.14,4.07c-2.68,2.21-.24,10.57,2.86,7.5Z"/><path class="cls-10" d="M25.64,77.42a28.68,28.68,0,0,0-7.16-4c-2.05-.87-5.55-2.29-7.66-1.31-2.32,1.08-2.07,5.75-.39,7.25s4.41,1.63,6.49,2.24a13.47,13.47,0,0,1,6.23,3.49c3,3,5.23-5.38,2.49-7.64Z"/><path class="cls-3" d="M81.31,242.83c-1.8-5.09-7-10.3-12.29-6.65-6.84,4.73-5.49,22.44-5.14,29.85.28,5.81,1.4,11.76,2.22,17.54.65,4.54-.62,12.24,2.12,16.15,2.2,3.14,8.36,4.15,11.33,1.52,3.57-3.19,2.58-8.13,2.23-12.26-.69-7.87-1.39-15.86-.86-24.32C81.38,257.39,83.91,250.19,81.31,242.83Z"/><path class="cls-3" d="M91.23,265.65c-.09-5-1-9.77-1.61-14.78a14,14,0,0,1,4-12.11c2.63-2.71,7.74-5.1,11.38-2.58,4.21,2.91,4.19,9.53,4.16,14.06,0,5.64.39,11,.12,16.61-.34,7-1.53,13.76-1.91,20.84-.19,3.3,1,8.56-1,11.47-2.26,3.39-8.89,4.8-11.94,2.08-2.69-2.39-1.89-6.07-2-9.38C92,283.22,91.37,274.21,91.23,265.65Z"/><path class="cls-11" d="M94.57,216.93c-10.2-.45-20.59-2.58-30.77-1-.79,2.39-9.93,33-10,33,17.83,8.44,38.44,6.57,56.82,2.84a48,48,0,0,0,8.71-2.7c-1.13-11-7.62-21-10.15-31.71C104.29,217.27,99.43,217.15,94.57,216.93Z"/><path class="cls-12" d="M64.19,173.34c.49-5.76,4.54-17.19,12.31-16.58-.45,3.9-.41,2-.19,5.42.43,6.75,4.63,5.56,11.24,5.4,9.58-.24,6.45-3.59,5.82-9.94,9.49-.55,11.08,15.69,13,22.05,3.92,13,10.35,41.19,11.79,47.85-4.43,3.06-19.84,3.7-25,3.79-10.07.17-34.73-2.87-38.26-2.35C57.58,217.16,63.27,184.22,64.19,173.34Z"/><path class="cls-13" d="M76,156.42s-6.9,13.58,9,13.46,9-13.46,9-13.46S87.42,152.07,76,156.42Z"/><path class="cls-14" d="M103.49,184.89c-1.87-3.48-5.11-11.47-1.68-14.91,6.3-6.32,10.43,8.3,12.15,11.94,2.77,5.89,6.87,12.42,7,19.11.06,2.84-2.67,4.95-5.91,3.59-4.78-2-6-6.09-7.93-10.56C105.92,191.17,105,187.73,103.49,184.89Z"/><path class="cls-14" d="M65.26,187.53a7.56,7.56,0,0,0-5.64,4.77c-3.17,7.11,4.64,4.33,8.62,4.77,4.32.48,7.78,2.51,11.76,3.82,4.66,1.53,23.43,4.62,27.79,5.15,3.46.42,17.17.11,12-7-4-5.47-13.08-5.76-19.21-5.74a93.8,93.8,0,0,1-15.44-1.09C79.52,191.3,71.22,186.38,65.26,187.53Z"/><path class="cls-13" d="M103,185.94c-13.05-37.36-5.33-29.62,1.49-23.85,2.35,2,14.06,13.87,13.63,14C111.86,178.38,108.5,183.3,103,185.94Z"/><path class="cls-3" d="M64.14,187.15c2.23-3.27,6.77-10.51,3.71-14.29-5.61-6.94-12.25,6.14-14.33,9.59-3.37,5.57-7.29,11.14-8.12,17.77-.35,2.82-.23,7,3.8,5.71,4.92-1.63,7.52-6.45,9.85-10.71C60.56,192.48,62.33,189.81,64.14,187.15Z"/><path class="cls-14" d="M65.26,187.53a7.56,7.56,0,0,0-5.64,4.77c-.42.95-1.11,3-.49,3.95s1.91.9,2.79,1A83.83,83.83,0,0,0,70.3,197c2-.06,4.89-.42,6.44-1.77,1.36-1.18,1.17-3.3.19-4.66-1.12-1.56-3.38-2.07-5.11-2.52A15.19,15.19,0,0,0,65.26,187.53Z"/><path class="cls-3" d="M100.21,186a7.53,7.53,0,0,1,5.93,4.4c3.64,6.88-4.34,4.62-8.28,5.32-4.28.77-7.61,3-11.49,4.59-4.54,1.83-23.07,6.15-27.39,7-3.43.65-17.31,1-12.39-6.18,3.84-5.61,12.67-6.62,18.79-7A93.25,93.25,0,0,0,80.72,192C86.22,190.69,94.18,185.24,100.21,186Z"/><path class="cls-13" d="M66.56,184.89C81.07,151,71.07,157.1,65.3,162.51c-2,1.86-11.88,13-11.52,13.16C59.11,177.8,62,182.41,66.56,184.89Z"/><path class="cls-11" d="M67.38,292.15l.34.27a6.21,6.21,0,0,0,3.58,1.31,14.59,14.59,0,0,0,7.5-1.34c1.18-.54,5-3.72,4.4-.28-.2,1.06-.91,1.94-1.18,3s0,1.61-1.07,2.37a16.27,16.27,0,0,1-5.55,2.66c-2.42.49-6.8.37-8.69-1.56-1.14-1.18-.57-2.86-.83-4.21-.17-.92-2-2-1.1-3C65.45,290.64,66.65,291.57,67.38,292.15Z"/><path class="cls-10" d="M82.29,294.35c-.34,2.42-3.24,3.42-5.28,3.95-3.48.89-10.59.87-11.13-3.95a24.35,24.35,0,0,0-3.07,4.74c-1,1.71-2,3.43-2.81,5.21-1,2-1.93,3.85-1.65,6.12.12,1.05-.1,2.5.54,3.42a6,6,0,0,0,2.76,1.53,30.67,30.67,0,0,0,12.79.74c1.46-.19,3.08-.05,4.32-1a7.1,7.1,0,0,0,2.26-2.8c1.6-3.77,4-9.44,2.77-13.57C83.46,297.58,83.48,295,82.29,294.35Z"/><path class="cls-11" d="M58.44,312.29s1.21,2.43,9,2.55,10.8-.52,12.12-1.88c1.83-1.88,4.17-10.34,4.48-13.17a20.7,20.7,0,0,1,0,4.22c-.28,1.39-1.9,11.35-4.68,12.45a30,30,0,0,1-11.75,1.39c-4.28-.29-8.39-1.68-9-2.9A3,3,0,0,1,58.44,312.29Z"/><path class="cls-11" d="M64.63,305.77a14.23,14.23,0,0,1,7.27-.37c2,.33,3.87,1.27,5.86,1.52,1,.12.63-2.44.44-2.88-2.07-4.79-9.3-4.28-13.48-3.22l.21,2.54c3.22-1.55,11.36-3.52,13.86.07.68,1,1.22-2.09.64-2.86-3-4.05-11.16-1.51-14.85.3-.58.28-.43,2.71.2,2.54,3.82-1,10.57-1.34,12.46,3l.44-2.87c-4.71-.31-8.8-1.69-13.27.68-.39.2-.3,1.71.22,1.52Z"/><path class="cls-11" d="M106.43,292.15l-.34.27a6.21,6.21,0,0,1-3.58,1.31,14.59,14.59,0,0,1-7.5-1.34c-1.18-.54-5-3.72-4.4-.28.2,1.06.91,1.94,1.18,3s0,1.61,1.07,2.37a16.27,16.27,0,0,0,5.55,2.66c2.42.49,6.81.37,8.69-1.56,1.14-1.18.57-2.86.83-4.21.17-.92,2-2,1.1-3C108.36,290.64,107.16,291.57,106.43,292.15Z"/><path class="cls-10" d="M91.52,294.35c.35,2.42,3.24,3.42,5.28,3.95,3.48.89,10.59.87,11.13-3.95a24.35,24.35,0,0,1,3.07,4.74c1,1.71,2,3.43,2.81,5.21,1,2,1.93,3.85,1.66,6.12-.13,1.05.09,2.5-.55,3.42a6,6,0,0,1-2.76,1.53,30.67,30.67,0,0,1-12.79.74c-1.46-.19-3.08-.05-4.32-1a7,7,0,0,1-2.25-2.8c-1.61-3.77-4-9.44-2.78-13.57C90.35,297.58,90.33,295,91.52,294.35Z"/><path class="cls-11" d="M115.37,312.29s-1.21,2.43-9,2.55-10.8-.52-12.12-1.88c-1.83-1.88-4.17-10.34-4.48-13.17a20.7,20.7,0,0,0,0,4.22c.28,1.39,1.9,11.35,4.68,12.45a30,30,0,0,0,11.75,1.39c4.28-.29,8.39-1.68,9-2.9A3,3,0,0,0,115.37,312.29Z"/><path class="cls-11" d="M109.36,304.24c-4.48-2.37-8.59-1-13.31-.67l.58,2.84c1.88-4.34,8.68-4,12.46-3,.63.17.65-2.27.08-2.55-3.72-1.82-11.82-4.33-14.86-.28-.56.76.07,3.85.78,2.83,2.5-3.59,10.66-1.58,13.86,0l.08-2.55c-4.22-1.07-11.4-1.56-13.48,3.25-.2.47-.39,3,.58,2.85,2-.25,3.83-1.21,5.84-1.52a14.27,14.27,0,0,1,7.25.38c.51.18.54-1.33.14-1.54Z"/><path class="cls-3" d="M77.39,154.71s-5.8,13.08,7.56,13,7.53-13,7.53-13S87,151.06,77.39,154.71Z"/></g></g></svg>