<svg xmlns="http://www.w3.org/2000/svg" viewBox="0 0 176.53 371.16"><defs><style>.cls-1{fill:#56a5b7;}.cls-2{fill:#f2a302;}.cls-3{fill:#fbbb9e;}.cls-4{fill:#fed0b5;}.cls-5{fill:#e5a088;}.cls-6,.cls-7,.cls-8{opacity:0.5;}.cls-7{fill:#eb7376;}.cls-8{fill:#ffbd94;}.cls-9{fill:#65253e;}.cls-10{fill:#f4787d;}.cls-11{fill:#d04e56;}.cls-12{fill:#fff;}.cls-13{fill:#a36148;}.cls-14{fill:#fdb302;}.cls-15{fill:#e13929;}.cls-16{fill:#d4d4d4;}.cls-17{fill:#4298ac;}</style></defs><title>Asset 1</title><g id="Layer_2" data-name="Layer 2"><g id="OBJECTS"><path class="cls-1" d="M99.37,268c-8.77-1-17.81-2.22-25.58-.36-9,2.16-8,8.24-8.21,16.36-.22,10-1.18,19.95-1,29.95.21,9,2.76,18.58,4.15,27.58,1.5,9.65,18.33,9,18.83-1,.35-7.17-.88-14.63-1.26-21.76a66.48,66.48,0,0,1,.24-11.11c.13-1.17,1.44-11.05,2.52-11.09a21.14,21.14,0,0,1,2.64,0c.76,11,3.36,21.85,3.6,32.87.17,8.2-1.83,19.81,10.36,18.15,5.39-.73,7.73-1.82,8-7.45.77-16.76,5.18-34.06,2.24-50.8-1.2-6.88-2.71-13.59-3.35-20.56A94.46,94.46,0,0,1,99.37,268Z"/><path class="cls-2" d="M97.24,206.29H82.07l-1,1.76.53,1.32c0,.07,16.32-.6,16.32-.6v-1.18Z"/><path class="cls-3" d="M6.73,149.51c6-8.92,16-4.59,20.93,2.72,3.67,5.48,5.28,17.3-2.53,20.18-4.87,1.8-12.13-1.32-15.54-4.87C5,162.8,2.72,155.42,6.73,149.51Z"/><path class="cls-3" d="M174.7,152.52c-5.71-9.13-15.86-5.16-21,2-3.86,5.35-5.89,17.1,1.81,20.26,4.81,2,12.17-.89,15.71-4.31C175.93,165.87,178.49,158.58,174.7,152.52Z"/><path class="cls-4" d="M159.05,86.73c-7.92-16-29.56-18.7-45.48-20.46-25.79-2.87-49.94-5-74.07,7.64C10.56,89.08,24,134.27,23.55,160.12c-.42,23.93,18.18,31.85,33.68,35.32S83,201.45,82.06,207s-5.33,21.1,7,21.32h.74c12.37.22,9-15.66,7.32-21.33-1.62-5.4,9.82-7.5,25.43-10.41,14.4-2.69,31-10.62,34.6-26.38,1.95-6.23,2.23-21.63,2.23-21.63,1.06-18,7.36-43,.44-60.07C159.6,87.92,159.33,87.32,159.05,86.73Z"/><path class="cls-5" d="M93.84,164.39a7.44,7.44,0,0,1-3.15.91,8,8,0,0,1-3.38-.94c-1.38-.58-3.19-1.46-2-3.27.68-1.08,2-.8,3.07-.51a8.46,8.46,0,0,0,3.75.48c1.18-.25,2.31-1,3.52-1.1,1.56-.07,1.75,2,.94,3s-1.74,1-2.62,1.43Z"/><g class="cls-6"><path class="cls-7" d="M62.07,164.86c1.28-5.48-4.34-11.47-12.54-13.37s-15.88,1-17.15,6.47,4.34,11.47,12.54,13.37S60.8,170.34,62.07,164.86Z"/><path class="cls-7" d="M63.63,165.22c.94-4.07-4.94-8.9-13.14-10.81s-15.62-.15-16.56,3.91,4.94,8.9,13.14,10.81S62.68,169.28,63.63,165.22Z"/><path class="cls-8" d="M61.25,164.67c1.38-5.92-4.68-12.38-13.53-14.43s-17.14,1.07-18.51,7,4.69,12.38,13.53,14.43S59.88,170.58,61.25,164.67Z"/><path class="cls-7" d="M65.51,165.65c1.27-5.48-5.82-11.81-15.85-14.13s-19.18.22-20.45,5.7S35,169,45.05,171.36,64.24,171.14,65.51,165.65Z"/></g><g class="cls-6"><path class="cls-7" d="M122.28,165.94c-1.08-5.53,4.75-11.31,13-12.92s15.83,1.57,16.91,7.09-4.75,11.3-13,12.91S123.35,171.46,122.28,165.94Z"/><path class="cls-7" d="M120.71,166.24c-.8-4.09,5.26-8.72,13.52-10.33s15.61.41,16.41,4.5-5.26,8.72-13.52,10.33S121.51,170.34,120.71,166.24Z"/><path class="cls-8" d="M123.1,165.78c-1.16-6,5.13-12.2,14.05-13.94s17.08,1.69,18.24,7.65-5.13,12.19-14,13.93S124.26,171.73,123.1,165.78Z"/><path class="cls-7" d="M118.81,166.61c-1.07-5.52,6.25-11.59,16.35-13.56s19.16.92,20.23,6.44-6.24,11.59-16.34,13.56S119.89,172.13,118.81,166.61Z"/></g><path class="cls-9" d="M53.29,156.42c6,.52,6.77-10.26,1.26-11.55C47.15,143.14,47.39,155.9,53.29,156.42Z"/><path class="cls-9" d="M128,157.78c6,.39,6.53-10.41,1-11.57C121.52,144.65,122.06,157.41,128,157.78Z"/><path class="cls-10" d="M91,181.31c-3.7-.08-9.52-1.08-12.07-4.14-2.27-2.72-1.56-4.61,2.17-4.89,5.36-.39,9.66,3.33,15.4,2.39,2.08-.34,6.34-1.7,5.63,1.93S93.86,181.33,91,181.31Z"/><path class="cls-11" d="M95.6,174.77c.23.12.46.23.68.36a19.58,19.58,0,0,1,2.92,4.49A21.41,21.41,0,0,1,91,181.31c-3.64-.07-9.32-1.06-11.93-4a15.35,15.35,0,0,1,8.47-4C90.08,174.13,92.66,175,95.6,174.77Z"/><path class="cls-12" d="M100,176.77c-2.21.61-18.16.13-19.92-1.77a2.71,2.71,0,0,1-.56-2.44,7.81,7.81,0,0,1,1.56-.28c5.36-.39,9.66,3.33,15.4,2.39,1.3-.22,3.46-.83,4.72-.36C101.26,175.35,101.07,176.47,100,176.77Z"/><path class="cls-9" d="M58,120c0-9.66-12.34-2.59-14.29,2.55C44.62,122.07,58,118.05,58,120Z"/><path class="cls-9" d="M121.76,122.35c-3.25-9.1,10.75-6.61,14.31-2.43C135,119.8,121.11,120.52,121.76,122.35Z"/><path class="cls-13" d="M27.57,110.88c.62-1.48,1.32-3,2.09-4.52,12.17-24.51,44.24-26.89,69-27.17,14-.16,25.2,1.12,38,6.08-14.31,9.94,6.19,22.56,15.85,22.31-.76,11.25.16,21.48,5.21,31.89-3.61,3.35-7.82,16.6-.48,10.61q0-.53,0,0c-.52,1.65-.1,3.44-.39,5.09,13.85-4,10.38-47.86,8.48-57.74C156.27,50.81,95.58,50.9,59.37,59.14,40.66,63.4,25.36,74.52,20.85,94c-2,8.73-1.72,18-1.47,26.86.14,4.83-2,33.66,6.63,34.62,5.61.63,3-8.25.19-10,8.39-3.18.7-10.75-.55-16.09C24,122.26,25.09,116.75,27.57,110.88Z"/><path class="cls-14" d="M98.63,209.76a5.44,5.44,0,0,0-.75-1.65c-.08-.08-.08-.07,0,0,4.86,3.29,6.49,10.11,8.15,15.38,7.92,25,7.5,53.15,9.72,59,.33.85,1.55,2.39,1.71,3.13,1.09,5.11-4.28,3.91-8.27,4.19-11.09.79-23.1,3.95-34.2,2.41-2.74-.38-9.86-1.31-11.25-4.08-.73-1.45.29-1.82.38-3.18.17-2.37.75-4.73,1-7.1,1.24-11.76.84-23.69,2.39-35.45,1.61-12.27,4.77-24.38,12.69-34.13.62,10.17,2.89,11.84,12,11.61,2.34,0,5.41,0,6.59-2.34C99.56,216.05,99.36,212.19,98.63,209.76Z"/><path class="cls-15" d="M87,346.65c-.35,2.43-3.24,3.43-5.28,4-3.49.9-10.6.88-11.13-4a24.47,24.47,0,0,0-3.08,4.75c-1,1.7-2,3.43-2.81,5.21-.95,2-1.93,3.84-1.65,6.12.13,1-.09,2.49.55,3.41a5.83,5.83,0,0,0,2.76,1.53,30.65,30.65,0,0,0,12.79.75c1.46-.19,3.07-.06,4.31-1a7.17,7.17,0,0,0,2.26-2.8c1.6-3.77,4-9.44,2.78-13.57C88.13,349.89,88.15,347.27,87,346.65Z"/><path class="cls-12" d="M83.41,367.2c-1.35,3-5,2.36-7.62,2.29-3.5-.1-7.22.56-10.5-1.06-3.73-1.83-.69-6.18,1.81-7.46A14.55,14.55,0,0,1,78,360.54C80.33,361.4,84.8,364.13,83.41,367.2Z"/><path class="cls-16" d="M63.1,365.24s1.22,2.55,9,2.67,10.8-.54,12.12-2c1.83-2,4.18-10.87,4.48-13.85a22.19,22.19,0,0,1,0,4.45c-.27,1.46-1.89,11.92-4.67,13.08a28.89,28.89,0,0,1-11.75,1.46c-4.29-.31-8.4-1.77-9-3A3.26,3.26,0,0,1,63.1,365.24Z"/><path class="cls-16" d="M68.89,351.24c4.49-2.92,11.5.16,14.46,2.09.46.31-.61,2.3-1.17,2.09a20.28,20.28,0,0,0-6.3-1.27,11.81,11.81,0,0,1,6.36,2c.28.2-.39,1.4-.71,1.25a14.85,14.85,0,0,0-6.09-1.22c-2.43-.06-4.93.55-7.31.5-1,0,.33-2.11.66-2.43a7.83,7.83,0,0,1,2.41-1.55,6.41,6.41,0,0,0-2.78,1C67.37,354.41,68.05,351.79,68.89,351.24Z"/><path class="cls-15" d="M96,346.11c.35,2.43,3.24,3.43,5.28,3.95,3.48.9,10.6.88,11.13-3.95a24.65,24.65,0,0,1,3.07,4.74c1,1.71,2,3.43,2.81,5.22,1,2,1.93,3.84,1.66,6.11-.13,1.06.09,2.5-.55,3.42a6,6,0,0,1-2.76,1.53,30.84,30.84,0,0,1-12.79.75c-1.46-.2-3.08-.06-4.32-1a7,7,0,0,1-2.25-2.79c-1.61-3.77-4-9.44-2.78-13.57C94.86,349.34,94.84,346.73,96,346.11Z"/><path class="cls-12" d="M99.57,366.66c1.36,3,5,2.36,7.62,2.29,3.51-.11,7.23.55,10.51-1.06,3.73-1.83.69-6.18-1.81-7.46A14.57,14.57,0,0,0,105,360C102.66,360.86,98.18,363.59,99.57,366.66Z"/><path class="cls-16" d="M119.88,364.69s-1.21,2.56-9,2.68-10.8-.55-12.12-2c-1.83-2-4.17-10.87-4.48-13.85a22.91,22.91,0,0,0,0,4.44c.28,1.46,1.9,11.93,4.68,13.09a28.86,28.86,0,0,0,11.75,1.46c4.28-.31,8.39-1.77,9-3.05A3.26,3.26,0,0,0,119.88,364.69Z"/><path class="cls-16" d="M113.52,350.74a5.08,5.08,0,0,0-2.58-1.18,16.24,16.24,0,0,0-8.15,1.45A36,36,0,0,0,99,352.84c-.54.32-.13,2.36.48,2.14a22.16,22.16,0,0,1,6.43-1.27,13.94,13.94,0,0,0-6.71,2c-.33.21-.07,1.43.29,1.28a25.68,25.68,0,0,1,6.92-1.53,37.32,37.32,0,0,1,8.11-.36c1.35.13.89-1-.1-1.16a2.18,2.18,0,0,1-1.47-.72c.13.15,1.21-.47,1.32-.63a1,1,0,0,0-.12-1.16A3.32,3.32,0,0,0,113.52,350.74Z"/><path class="cls-4" d="M82.06,207s2,15.44,7.6,15.44a7.28,7.28,0,0,0,3.23-2.24c3.32-4,4.26-13.2,4.26-13.2S91.69,203.36,82.06,207Z"/><path class="cls-17" d="M72.2,342.77a21.18,21.18,0,0,0,8.68.82,13,13,0,0,0,3.62-1c1-.45,1.63-1.5,2.55-1.9,1.11-.49,1.48.19,1.55,1.2,0,.57-.3,1.06-.28,1.6s.48,1.27.47,1.95c0,1.05-2.11,3.47-2.89,4.07a12.34,12.34,0,0,1-9,2c-3.17-.47-7.7-.91-8.29-4.73-.18-1.16-1.9-4.54-.34-5.3.76-.36,1.15.2,1.79.48A19.32,19.32,0,0,0,72.2,342.77Z"/><path class="cls-17" d="M110.88,342.77a21.18,21.18,0,0,1-8.68.82,12.87,12.87,0,0,1-3.62-1c-1-.45-1.63-1.5-2.55-1.9-1.11-.49-1.48.19-1.55,1.2,0,.57.3,1.06.28,1.6s-.48,1.27-.48,1.95c0,1.05,2.11,3.47,2.9,4.07a12.34,12.34,0,0,0,9,2c3.17-.47,7.7-.91,8.29-4.73.18-1.16,1.9-4.54.33-5.3-.76-.36-1.14.2-1.78.48A19.32,19.32,0,0,1,110.88,342.77Z"/><path class="cls-13" d="M163.14,94.08c-9.07-3.24-13.93-11.13-15.35-20.23-.53-3.38-1.84-18.24,5.63-14.5,4.63,2.32,3.24,12,5.56,15.74,5.09-5.09,10.18,1.86,6.48,6.49C176.11,85.28,176.11,98.71,163.14,94.08Z"/><path class="cls-13" d="M129.3,33.63c-3-5.29-7.17-9.6-14.06-11.61C103.47,18.58,92,23.86,92.77,37c-2.12-7.74-4.47-15.71-8.91-22.49C61.32-20,5.88,13.68,35.61,46.77,27.44,41.84,19.44,34.9,9.26,39.31c-9.38,4.06-10.69,15-8.08,24,2,6.82,5.63,10.77,9.79,16.22,10.65,14,9.31,24.3,6.78,40.72-1.05,6.79-3,18,3.66,22.54,5.77-11.73.53-24.72,6.44-36.77,10.6-21.64,31.4-29.17,54.05-30.33,23.67-1.21,52.35-1.1,70,17.54,3.47,3.65,5,8.37,10.21,10.06,1.7.56-6.62-16.89-7.19-18-4.64-9-10.72-17.14-15.28-26.12C135.5,51,133.81,41.64,129.3,33.63Z"/><path class="cls-2" d="M81.78,207.71s.86,10.63,8.06,14.86l-7.16-.95-3.94-4.52,2.06-2L77.7,214l1.85-6,2.52-1.76A2,2,0,0,1,81.78,207.71Z"/><path class="cls-2" d="M97.54,207.71s-.86,10.63-8.07,14.86L98.13,220l2.2-5-1-.66,1.63-.91-1-4.45-2.69-2.65A2,2,0,0,0,97.54,207.71Z"/><polygon class="cls-2" points="87.86 221.13 89.47 222.57 92.14 220.47 91.94 221.84 89.5 224.07 87.54 222.27 87.86 221.13"/><path class="cls-4" d="M103.26,269.22a3.59,3.59,0,0,1,.69-.71c2.12-1.62,4.33-2.59,6-4.75A18.81,18.81,0,0,0,112.6,259c.6-1.49,1.12-2.94,2.7-1.17.76.86.47,2,1,2.91.63,1.17,2.26,1.59,3.24,2.38,2.94,2.38,1.78,6.86-.44,9.14-2,2.11-5.59,6.19-8.88,4-.81.85-3.28,1.8-3.81.09-2,.22-3.74-2-2.13-3.68C101.76,272.89,102.22,270.62,103.26,269.22Z"/><path class="cls-2" d="M136.31,243.37a6,6,0,0,0-.47-4.67c-2.4-4.18-7.07-7.89-10.69-11-4.53-3.92-9-8-13.76-11.55-3.33-2.49-6.25-5.23-10.68-5.35-.87,5.64,3.45,11.45,7.45,16.06,2,2.28,4,4.55,5.91,6.85,1,1.24,8,7.48,7.41,8.44-2.27,4.06-15,18.42-15.85,21.47s-.52,1.76,2,2.52c3.71,1.12,11.25,3.93,13.14,6.5,1-3.16,9.92-16.43,11.58-20.4C133.59,249.29,135.56,246.44,136.31,243.37Z"/><path class="cls-4" d="M76.21,270.06a3.59,3.59,0,0,0-.61-.79c-1.92-1.84-4-3.06-5.48-5.4a18.9,18.9,0,0,1-2.06-5c-.43-1.55-.79-3-2.55-1.46-.86.77-.69,1.91-1.3,2.78-.75,1.09-2.42,1.33-3.49,2-3.18,2-2.52,6.62-.57,9.13,1.8,2.32,4.87,6.77,8.38,5,.71.94,3.06,2.15,3.78.51,2,.44,3.93-1.58,2.52-3.42C77.29,273.87,77.09,271.56,76.21,270.06Z"/><path class="cls-2" d="M44.22,245a7.74,7.74,0,0,1,1.33-6.19c2.85-3.44,6-6.71,8.91-10.06,3.14-3.6,17.51-17.6,23.9-18,1.08,5.61-3,11.57-6.84,16.33-1.89,2.35-3.79,4.7-5.65,7.06-1,1.28-7.67,7.78-7.1,8.71,2.43,4,13.57,18.27,14.53,21.3s.59,1.73-1.92,2.58c-3.66,1.26-9,3.92-10.77,6.57.46-.67-9.16-13.13-10-14.39C48.5,255.84,44.93,250,44.22,245Z"/></g></g></svg>