<svg xmlns="http://www.w3.org/2000/svg" viewBox="0 0 187.01 321.72"><defs><style>.cls-1{fill:#ac7755;}.cls-2{fill:#fff;}.cls-3{fill:#e13929;}.cls-4{fill:#d4d4d4;}.cls-5{fill:#b3b3b3;}.cls-6{fill:#7d7197;}.cls-7{fill:#9e684a;}.cls-8{fill:#d04e56;}.cls-9{fill:#ff6e85;}.cls-10{fill:#884e3d;}.cls-11,.cls-12{opacity:0.5;}.cls-12{fill:#a95555;}.cls-13{fill:#65253e;}.cls-14{fill:#9d6036;}.cls-15{fill:#562f1e;}.cls-16{fill:#ff4c3b;}</style></defs><title>Asset 3</title><g id="Layer_2" data-name="Layer 2"><g id="OBJECTS"><path class="cls-1" d="M116.81,174.72q-.47.41-.9.84c3.78,6.48,9.16,11.59,13.9,17.31,3.44,4.15,9.51,8.77,4.87,14.07a161.47,161.47,0,0,1-18,17.33c-1.83,1.46-11.12,6.56-9.94,9,.94,1.91,5,2.36,7,2.33,6.15-.11,10.24-4.08,14.77-7.58,6.44-5,12.08-10.88,18.05-16.35,9.15-8.38,5.16-13.75,1.64-20.05-2.24-4-5.5-7.06-7.9-11s-4.78-8.39-8.21-11.75c-2.48-2.44-2.73-1.55-5.67.14C123.11,170.87,119.64,172.25,116.81,174.72Z"/><path class="cls-1" d="M84.66,165.25c-5.76,6.48-13.55,10-20.64,15-6.4,4.5-8.09,9.45-14.31,5a163.47,163.47,0,0,1-19.65-16.92c-1.66-1.73-7.57-10.71-10.2-9.36-2.08,1.06-2.46,5.15-2.37,7.12.29,6.16,4.8,10,8.79,14.3,5.69,6.13,12.36,11.4,18.57,17,9.51,8.62,15.33,4.26,22.18.33,8-4.6,15.22-12.68,21.36-17.09,3.85-2.76-.93-18.49-3.73-15.34Z"/><path class="cls-2" d="M78.28,191.31c-1.61-.22-3.12-2.79-4.22-3.84a48.23,48.23,0,0,0-5.42-4.66c-1.19-.82-4-1.17-4.62-2.6-1.68-4,6.55-9.06,8.93-11.18,4.68-4.16,11.24-8.36,17.83-7.4,4.86.71,2.82,4.34,1.15,7.66-2.08,4.15-4,8.91-6.93,12.53C84.18,182.84,79.36,191.45,78.28,191.31Z"/><path class="cls-2" d="M126.57,188.18c3-2.71,7-4.9,10.2-7,.63-.49,2.44-1.64,2.7-2.33,1-2.9-4.66-8-6.55-9.74-4.71-4.34-13.36-8.93-20-7.5-7.17,1.55,1.06,16,3.26,19.07.56.79,7.17,11,8.29,9.64A18.91,18.91,0,0,1,126.57,188.18Z"/><path class="cls-3" d="M109,297.38c.38,2.43,3.28,3.39,5.33,3.88,3.5.85,10.61.74,11.08-4.09a24.34,24.34,0,0,1,3.13,4.7c1,1.69,2,3.4,2.88,5.17,1,2,2,3.82,1.74,6.1-.12,1.05.12,2.49-.5,3.42a6,6,0,0,1-2.75,1.57,30.78,30.78,0,0,1-12.78.92c-1.46-.18-3.07,0-4.33-1a7.18,7.18,0,0,1-2.29-2.77c-1.65-3.75-4.09-9.39-3-13.53C107.86,300.63,107.8,298,109,297.38Z"/><path class="cls-2" d="M112.81,317.88c1.39,3,5,2.3,7.64,2.19,3.51-.15,7.23.46,10.49-1.2,3.71-1.88.61-6.18-1.9-7.44a14.62,14.62,0,0,0-10.86-.28C115.81,312,111.37,314.83,112.81,317.88Z"/><path class="cls-4" d="M133.09,315.65s-1.19,2.57-9,2.8-10.8-.41-12.15-1.82c-1.85-1.95-4.31-10.81-4.66-13.78a22.89,22.89,0,0,0,.06,4.44c.3,1.45,2.06,11.9,4.85,13a28.71,28.71,0,0,0,11.77,1.3c4.28-.36,8.37-1.87,8.93-3.16A3.3,3.3,0,0,0,133.09,315.65Z"/><path class="cls-4" d="M126.54,301.78a5.13,5.13,0,0,0-2.6-1.15,16.33,16.33,0,0,0-8.13,1.56,36,36,0,0,0-3.78,1.89c-.54.32-.1,2.35.5,2.13a22,22,0,0,1,6.42-1.36,13.86,13.86,0,0,0-6.68,2.09c-.33.21,0,1.43.3,1.28a25.21,25.21,0,0,1,6.91-1.62,36.61,36.61,0,0,1,8.1-.47c1.35.11.87-1-.12-1.17a2.15,2.15,0,0,1-1.48-.69c.13.15,1.21-.49,1.32-.65a1,1,0,0,0-.15-1.16A3,3,0,0,0,126.54,301.78Z"/><path class="cls-2" d="M103.19,304.41c0,.16.09.33.13.5,1.7,7.42-7.82,9.08-13,9.54-1.56.14-3.12.19-4.67.34a53.67,53.67,0,0,1-18.34-1.11c-.45-.11,2.31-5.33,2.66-5.8a11,11,0,0,1,4.3-3.89c2.9-1.22,7.7-1.29,8.75-5,2.31,1.81,5.08.53,7.17-.93,2.26-1.56,4.16-2.7,5.35-5.29,0-.1,2.8,3.52,3,3.86.93,1.36,2,2.61,2.86,4A13.62,13.62,0,0,1,103.19,304.41Z"/><path class="cls-2" d="M76.32,314.67a68.67,68.67,0,0,1-10.46-1.38c0-.09,0-.16,0-.24.1-3.74,2.24-5.94,5.07-7.52C74.94,306.29,77.11,309.7,76.32,314.67Z"/><path class="cls-2" d="M103.23,303.14a12,12,0,0,0,.16,1.31,16.21,16.21,0,0,1,.42,5.83,50,50,0,0,1-5,1.8A6.72,6.72,0,0,1,103.23,303.14Z"/><path class="cls-3" d="M101.87,303.7a6.11,6.11,0,0,0-1.26,1.08A7.72,7.72,0,0,0,99,306.7a6.89,6.89,0,0,0-.19,5.38c-7,2.14-14.56,4.16-22.29,3.73.79-5-1.59-9.52-5.62-10.28a24.43,24.43,0,0,1,2.68-1.26c3.19-1.3,7.21-2.2,9.22-5.09,1.83,1.7,6.49,1.65,8.79,1.82a16,16,0,0,0,5-.06c.62-.17,4-2.18,3-3.16.53.52,1.13.9,1.63,1.47s.82,1.24,1.3,1.82a8.32,8.32,0,0,1,.79,2.2A2.44,2.44,0,0,0,101.87,303.7Z"/><path class="cls-5" d="M103.81,310.28c-.17,1,.06,3.6-.87,4.17-7.29,4.5-18.16,5.23-26,4.8-.92-.05-11-.58-11-2.4,0-1.55,0-2.73,0-3.8,6,2.2,12.88,2.05,19.61,1.53A57.81,57.81,0,0,0,103.81,310.28Z"/><path class="cls-4" d="M80.78,300.8c1.37.92,2.73,2.25,2.88,3.43.09.7-.4,1.25-1.36,1.41a1.88,1.88,0,0,1-.54,0,1.17,1.17,0,0,1-1.2.59,2.47,2.47,0,0,1-2.21-1.42s0-.08,0-.11l0,0c-.06-.1-.14-.2-.21-.3l0-.05,0,0a7.41,7.41,0,0,0-.58-.54l0,0-.12-.08a5.08,5.08,0,0,0-.43-.27c-.9-.53-1.16-1.46-.69-2a1.73,1.73,0,0,1,1.76-.26A2.32,2.32,0,0,1,80.78,300.8Z"/><path class="cls-6" d="M111.3,219.23c-8.79-.84-17.84-2-25.59,0-9,2.28-7.92,8.35-8,16.46-.11,13.14-1.13,25.68,1.06,38.73.83,5,2.45,10.4,1.68,15.45-.17,1.11-1.06,2.08-1,3.22.08,1.72,1.2,3.84,1.49,5.62.48,2.95.49,3,3.54,3.63,8.42,1.77,18.84.94,16.44-10.1-2.52-11.56-5.1-28.28-.67-39.72,1.15-3,1.33-1,4.08-2.22-1.16.54,2.63,12.77,2.89,14,1.31,6.49.35,14.35.23,21,0,1.29-.09,9.86,1.26,10.46-.91-.41-.17,4.74.37,5.36.9,1,2.91,1.65,4.23,1.95a14,14,0,0,0,11.12-1.74c3.54-2.29,2.61-4.38,3-8.2.53-5.27-1.15-10.6-.33-15.83a87.92,87.92,0,0,0,.84-13.73c0-3.39-.5-43.94-3.4-43.8A93.75,93.75,0,0,1,111.3,219.23Z"/><path class="cls-7" d="M17.1,102c5.92-9,16-4.8,21,2.45,3.74,5.42,5.5,17.22-2.26,20.2C31,126.5,23.66,123.47,20.2,120,15.57,115.3,13.17,108,17.1,102Z"/><path class="cls-7" d="M185.1,102.77c-5.84-9-15.93-5-21,2.25-3.8,5.39-5.67,17.17,2.07,20.23,4.83,1.91,12.15-1,15.65-4.51C186.5,116.1,189,108.77,185.1,102.77Z"/><path class="cls-1" d="M168.57,37.2c-8.12-15.93-29.8-18.31-45.74-19.87C97,14.81,72.83,13,48.87,26,20.14,41.5,34.19,86.51,34.06,112.37,34,136.3,52.66,144,68.21,147.23s25.79,5.68,25,11.26-5.05,21.16,7.32,21.22h.74c12.36.05,8.81-15.78,7-21.43-1.69-5.38,9.72-7.63,25.29-10.75,14.36-2.87,30.88-11,34.25-26.83,1.87-6.25,1.94-21.66,1.94-21.66.82-18,6.8-43.07-.34-60.06C169.15,38.37,168.87,37.77,168.57,37.2Z"/><path class="cls-8" d="M101.36,136.36a15,15,0,0,1-7.56-1.7c-2.84-1.53-7.44-5.46-5.61-9.14,1.44-2.9,4.93-.72,7,.15,3.51,1.46,6.66,2.22,10.3.58,2.67-1.21,6.59-5,9.41-1.9,3.62,4-4.71,9.59-7.67,10.79A17.23,17.23,0,0,1,101.36,136.36Z"/><path class="cls-9" d="M91.14,132.83a15.72,15.72,0,0,0,2.66,1.83,15,15,0,0,0,7.56,1.7,17.23,17.23,0,0,0,5.91-1.22,19.87,19.87,0,0,0,3.93-2.31A13.57,13.57,0,0,0,91.14,132.83Z"/><path class="cls-2" d="M90.47,129.76c2.63.93,7.13,1.06,13.89.81s8.75-.33,9-2.17a24.61,24.61,0,0,0-.47-5.21c-2.47-.37-5.29,2.13-7.36,3.06-3.64,1.64-6.79.88-10.3-.58-1.68-.69-4.24-2.21-5.93-1.33C89,126.46,88.9,129.2,90.47,129.76Z"/><path class="cls-10" d="M105.22,114a7.51,7.51,0,0,1-3.14.95,8.1,8.1,0,0,1-3.39-.89c-1.38-.57-3.21-1.42-2.09-3.25.67-1.08,2-.83,3.06-.55a8.37,8.37,0,0,0,3.77.43c1.17-.26,2.29-1.07,3.5-1.14,1.56-.09,1.77,2,1,2.94-.67.8-1.73,1-2.61,1.47Z"/><g class="cls-11"><path class="cls-12" d="M72.64,116.59c1.2-5.49-4.49-11.41-12.72-13.2s-15.86,1.2-17.06,6.7,4.49,11.41,12.72,13.2S71.44,122.09,72.64,116.59Z"/><path class="cls-12" d="M74.2,116.93c.89-4.07-5.06-8.83-13.28-10.63s-15.62,0-16.51,4.13,5.06,8.83,13.29,10.63S73.31,121,74.2,116.93Z"/><ellipse class="cls-12" cx="55.75" cy="112.9" rx="10.99" ry="16.45" transform="translate(-66.45 143.29) rotate(-77.68)"/><path class="cls-12" d="M76.09,117.35c1.2-5.5-6-11.74-16-13.93s-19.18.48-20.38,6,6,11.73,16,13.92S74.89,122.84,76.09,117.35Z"/></g><g class="cls-11"><path class="cls-12" d="M132.85,116.88c-1.15-5.51,4.6-11.37,12.85-13.09s15.85,1.36,17,6.87-4.6,11.36-12.85,13.08S134,122.39,132.85,116.88Z"/><path class="cls-12" d="M131.29,117.2c-.85-4.08,5.14-8.78,13.38-10.5s15.62.2,16.47,4.28-5.14,8.79-13.38,10.51S132.14,121.29,131.29,117.2Z"/><path class="cls-12" d="M133.68,116.71c-1.24-5.95,5-12.27,13.86-14.12s17.1,1.46,18.34,7.4-5,12.27-13.86,14.12S134.92,122.65,133.68,116.71Z"/><path class="cls-12" d="M129.4,117.6c-1.15-5.51,6.09-11.68,16.16-13.78s19.17.66,20.32,6.17-6.09,11.68-16.16,13.78S130.55,123.1,129.4,117.6Z"/></g><path class="cls-13" d="M60.77,108c5.62,2,9.18-8.17,4.19-10.84C58.25,93.59,55.21,106,60.77,108Z"/><path class="cls-13" d="M139.45,108.58c5.93-.73,4.49-11.44-1.17-11.56C130.68,96.87,133.57,109.3,139.45,108.58Z"/><path class="cls-14" d="M68,71.78c-.14-9.66-12.38-2.42-14.26,2.74C54.63,74,67.92,69.84,68,71.78Z"/><path class="cls-14" d="M131.76,73.3c-3.37-9,10.66-6.75,14.28-2.61C145,70.58,131.08,71.48,131.76,73.3Z"/><path class="cls-15" d="M39.92,66.82c7.43,3,11.91-7.42,6.43-12,3.29-2,3.94-6.18,1.64-8.48,4.59,1.2,9.76,1.92,12-3.32-.43,7.11,10.39,7.57,14.29,3.61-2.11,7.8,7.77,10.7,11.62,4.47,1.84,5.5,8.57,6.51,12.55,2.62.8,4.07,6.79,5,8.93,1.37,0,7.68,12.33,7.76,13.42.07,0-.34,0-.34,0,0,2.53,6.52,13.2,4.55,13.52-1.82,1.15,4.13,8.61,7.46,10.15,2,0-.35,0-.35,0,0,.44,4.81,5.9,5.73,9.6,3.61-3.42,4.3,1.77,9.18,4,4.08,0-.34,0-.34,0,0,.37,2.6,1.61,4.43,4.2,5.22-3.1,2.34-3.33,6.93.47,8.67-4.67,2.94-1.47,8.85,2.34,5.59-2.93,2.59-1.17,6,2.2,6.81-3.86,1.42-5.5,8-.17,8.81a18.34,18.34,0,0,0,.91,3.9c3.72-1.3,13.18-9.64,8.12-13.7,4-2.2,6.24-8.69,2.18-11.72,3.33-3.06,6.46-9.88,1.11-12.5,1.84-3.74,3.55-9.83-1.88-11.08,2.16-3.9,3-10.5-2.13-12,4-4.31,2.64-12-4.29-11.48,3.23-.23-8.91-10.35-8.7-10.18-4.84-3.83-7.81-9-15.14-6.63-1-4.86-7.81-9.11-11.72-5.05-2-4.5-7.51-6.49-11.5-3.44a7.44,7.44,0,0,0-11.27-1.84c-3.5-3-11.77-3.75-13.78,1.21C99,3.18,86.39-1,84.82,5.55,80.7,2.32,71.43,1.77,72.27,9.05,67.85,7.2,57.79,5.89,59.09,13.41q.45.25.15,0c-5.2-2.55-11.52-1.72-11.57,5.28q.42.11.3-.3c-4.47-.68-10.41.36-10.24,5.61-5.32-.06-14.54,7.65-8.62,12.61-4.27.83-6.17,6.41-2.19,8.79-4.57,1.54-6.9,9.11-1.16,10.3-2,3.92-6.6,9.85-.38,12.77-3.74,3.1-5.61,9.55.59,10.75-2.35,3.08-2.5,7.55,1.5,8.77-5.67-1.73,2.86,9,2.47,8.48,1.61,2.16,3,5.73,4.56,7.71,5.86,7.36,5.91-1.49,2.23-7.24,4.56-2.52,6.84-9.75.74-12.31,2.71-1.72,3-5,.36-7C43.11,76.93,44.84,69.29,39.92,66.82Z"/><path class="cls-16" d="M110.33,160.46c3.83,3.8,5.33,9,7,14.19,3.82,11.54,5.87,23.57,7.36,35.6,1.29,10.41,3.94,20.65,5,31-13,10.39-38.48,2.8-53.85,2.53-.77-16.33,1.35-33.48,3.27-49.75,1.23-10.39,3.7-20.41,8.92-29.55a24.11,24.11,0,0,1,2.41-3.58c.53-.63,1.92-2.42,2.77-2.55-.92,4-.34,7.89,4.27,9,3.58.85,9.61,0,11.13-4a7.9,7.9,0,0,0-.33-5.12A18.28,18.28,0,0,1,110.33,160.46Z"/><path class="cls-2" d="M93.21,158.22s-1.31,5.18,1.48,7.16,12.06,1.17,13-1.38a14.15,14.15,0,0,0,.57-5.71l1,.91s1.81,7.6-1.23,9.14-9.3,2.25-13.07.92S90.1,161.15,92,159.1Z"/><path class="cls-1" d="M32.45,155c1-2.26,1.89-4.62-1-5.19-4.86-.95-5,8.72-7.92,7.39-3.73-1.7-9-13.53-13.83-8.91-3.57,3.37,6.11,10.7,7.78,12.78-3-1.59-11.43-11.17-15.31-5.65-2.58,3.69,7.84,8,11.87,11.08-2.7-.06-13.9-6.84-14.06-.75-.06,2.62,2.12,4,4.37,4.58,2.63.68,5.35.67,8,1.39.06,0,.06,0,0,0-2.44.57-7.34.08-8.45,3a2.94,2.94,0,0,0,1.35,3.6c1.44.72,3.13,0,4.55-.37a11.25,11.25,0,0,1,5.38-.06c1.66.42,3.09,1.5,4.79,1.82a8.21,8.21,0,0,0,6.51-1.53c2.86-2.13,6.91-4.66,7.6-8.43.73-4-2.64-7.5-2.72-11.45A9.55,9.55,0,0,1,32.45,155Z"/><path class="cls-1" d="M130.14,227.92a3.68,3.68,0,0,0,.53-1.14c1.16-3.9-3.27-10.86-6.73-12.48-4-1.87-6.4.28-9.73,2.68-1.23.9-3.66,2.21-3.24,4.11s2.6,1.49,3.68.36c-.9,1-2.31,1.58-2.37,3.11A2.36,2.36,0,0,0,115,227c-1.86,2.66,1.78,2.59,3.16,2.74-.63,1.08.27,2,1.38,1.93,2-.1,3.68-3.12,5.93-3.4C127.27,228,129.07,229.3,130.14,227.92Z"/></g></g></svg>