<svg xmlns="http://www.w3.org/2000/svg" viewBox="0 0 176.24 321.8"><defs><style>.cls-1{fill:#a36148;}.cls-2,.cls-7,.cls-8{opacity:0.5;}.cls-3{fill:#cb806d;}.cls-4{fill:#fbbb9e;}.cls-5{fill:#fed0b5;}.cls-6{fill:#e5a088;}.cls-7{fill:#eb7376;}.cls-8{fill:#ffbd94;}.cls-9{fill:#65253e;}.cls-10{fill:#ca526a;}.cls-11{fill:#fff;}.cls-12{fill:#e13929;}.cls-13{fill:#d4d4d4;}.cls-14{fill:#cb468b;}.cls-15{fill:#ff93cb;}.cls-16{fill:#ed80b5;}</style></defs><title>Asset 2</title><g id="Layer_2" data-name="Layer 2"><g id="OBJECTS"><path class="cls-1" d="M172.37,156.46c-2.37-9.89-4.92-19.88-8-29.57-2.67-8.42-1.44-13.81.05-22.58,3.46-20.27,2-41.05-5.56-60.19-6.94-17.64-12-24.42-29.27-32.94C91.38-7.63,26.06,6.4,9.71,49.08c-7.3,19-.37,39.45,1.73,58.85,2.05,18.92,1.27,39.12-3.36,57.62C4.39,180.27.84,196.42,16.1,206c6.58,4.13,13.11,6.2,19.8.81,5.05,14.1,21.43,4.8,28.2-2.76,4.73,4.42,10.73,10.19,17.34,11,7.57.93,11.28-5.56,16.48-5.57s8.87,6,15.72,5c5.4-.81,11.73-7.19,15.79-10.41,8.25,10.58,22.72,4.44,28.95-4.88C180.28,203.87,178.11,180.51,172.37,156.46Z"/><g class="cls-2"><path class="cls-3" d="M157.85,191.18c9.26-6-.47-17.13-.93-24.54-6,10.65-11.58,20.84-5.56,32.88-13.43-2.32-15.28-21.3-15.74-32.42-5.1,3.71-9.27,14.36-5.1,20.84-7.87-9.72-13-17.13-11.58-30.56,1.39-12,4.17-22.23,4.17-34.74,8.8,12.51,15.29,22.23,19.92,37.05,5.55-14.82-.93-28.25.46-43.07,4.17,5.09,7.87,13,9.73,19.91,0-6,0-12.5.92-18.06C153.55,122,183.37,202,157.85,191.18Z"/></g><g class="cls-2"><path class="cls-3" d="M27.71,195.81c-13.47,2.38-12.83-17.26-11.41-25.45,3-17.16,13.26-32.21,13.26-50,.93,12,4.63,24.54,5.1,37.05,6.94.46,9.26-8.8,13-13.44C49,156,32.8,199.52,57.35,200c-8.8,18.53-25-13.89-26.4-21.3-4.17,3.7-4.63,12-.93,16.67-7.87,2.32-14.82-5.56-15.28-13"/></g><path class="cls-4" d="M2.06,101.08c6-8.92,16-4.59,20.94,2.73,3.67,5.47,5.28,17.29-2.53,20.17-4.88,1.8-12.13-1.32-15.55-4.87C.35,114.38-1.94,107,2.06,101.08Z"/><path class="cls-4" d="M170,104.1c-5.72-9.14-15.86-5.16-21,2-3.87,5.34-5.9,17.09,1.8,20.25,4.81,2,12.17-.89,15.71-4.31C171.27,117.44,173.83,110.15,170,104.1Z"/><path class="cls-5" d="M154.38,38.3c-7.91-16-29.55-18.7-45.47-20.46C83.11,15,59,12.83,34.84,25.48c-28.94,15.17-15.49,60.36-16,86.21-.43,23.93,18.18,31.85,33.68,35.32s25.72,6,24.82,11.58-5.32,21.1,7,21.32h.74c12.36.22,9-15.66,7.31-21.33-1.61-5.4,9.83-7.5,25.44-10.41,14.39-2.68,31-10.62,34.59-26.38,2-6.23,2.24-21.63,2.24-21.63,1.05-18,7.36-43,.44-60.06C154.94,39.49,154.67,38.89,154.38,38.3Z"/><path class="cls-6" d="M88.61,115.1a7.44,7.44,0,0,1-3.15.91,8,8,0,0,1-3.38-.94c-1.38-.58-3.19-1.46-2-3.27.68-1.08,2-.8,3.07-.51a8.5,8.5,0,0,0,3.76.48c1.17-.25,2.3-1,3.52-1.1,1.56-.07,1.74,2,.93,3s-1.74,1-2.62,1.43Z"/><g class="cls-2"><path class="cls-7" d="M57.41,116.43C58.68,111,53.07,105,44.87,103.06s-15.88,1-17.16,6.47S32.06,121,40.26,122.9,56.14,121.91,57.41,116.43Z"/><ellipse class="cls-7" cx="44.11" cy="113.34" rx="7.55" ry="15.24" transform="translate(-76.27 130.67) rotate(-76.93)"/><path class="cls-8" d="M56.59,116.24c1.37-5.92-4.69-12.38-13.54-14.43s-17.13,1.07-18.5,7,4.68,12.37,13.53,14.42S55.21,122.15,56.59,116.24Z"/><path class="cls-7" d="M60.84,117.23C62.12,111.74,55,105.41,45,103.09s-19.18.23-20.45,5.71,5.82,11.81,15.84,14.13S59.57,122.71,60.84,117.23Z"/></g><g class="cls-2"><path class="cls-7" d="M117.61,117.51c-1.07-5.53,4.75-11.31,13-12.92s15.83,1.57,16.91,7.09-4.76,11.3-13,12.91S118.69,123,117.61,117.51Z"/><path class="cls-7" d="M116.05,117.81c-.8-4.09,5.25-8.72,13.52-10.32s15.6.4,16.4,4.5-5.25,8.71-13.52,10.32S116.84,121.91,116.05,117.81Z"/><path class="cls-8" d="M118.44,117.35c-1.16-6,5.13-12.2,14-13.94s17.09,1.69,18.25,7.65-5.13,12.2-14,13.93S119.6,123.31,118.44,117.35Z"/><path class="cls-7" d="M114.15,118.18c-1.07-5.52,6.24-11.59,16.34-13.56s19.16.92,20.24,6.44-6.24,11.59-16.34,13.56S115.23,123.7,114.15,118.18Z"/></g><path class="cls-9" d="M46.54,107.91c5.85,1.22,7.93-9.39,2.61-11.32C42,94,40.74,106.7,46.54,107.91Z"/><path class="cls-9" d="M123.18,109.35c5.95.51,6.75-10.27,1.24-11.55C117,96.08,117.28,108.84,123.18,109.35Z"/><path class="cls-10" d="M67.21,117.3c4.16,12.6,20.62,12.15,30.57,7.74.52-.23.32-2-.27-1.69-5.25,2.48-10.34,4.18-16.13,2.87s-11.14-3.86-13.95-9.32c-.16-.32-.26.26-.22.4Z"/><path class="cls-1" d="M39.6,75.89C59,67.24,79.06,70.48,99.72,64.82c13.49-3.7,25.8-4.91,32.21-19.82-4.32,10,4.91,22.58,10,30.28,7.78,11.78,6.9,19.41,9.43,32.61.63-1.37,2-3,2.69-4.57-.19,1.65,0,3.66-.27,5.29,6.23-21,11.05-37.34,6.77-59.64C151.61,2.39,90.91,2.47,54.71,10.71c-37.11,8.45-57,52-39.08,85.72C21,91.1,25.09,84.33,32,80A60.85,60.85,0,0,1,39.6,75.89Z"/><path class="cls-3" d="M56,69.1a7.68,7.68,0,0,0-8.52-2.72,7,7,0,0,0-4.9,6.8c0,.48.56,1.86,1,.83,1.21-2.6,2.09-4.36,5.15-5a9,9,0,0,1,6.95,1.58c.54.37.48-1.22.28-1.48Z"/><path class="cls-3" d="M117.86,71.69a9.68,9.68,0,0,1,6.53-1.42c3.11.35,4.31,2.48,5.34,5.08.36.92,1,.52,1.08-.31.72-7.4-9-10-13.31-4.82-.23.28-.21,1.81.36,1.47Z"/><path class="cls-5" d="M81.31,246.71c-1.8-5.1-7-10.31-12.29-6.65-6.84,4.72-5.49,22.44-5.14,29.85.28,5.81,1.4,11.76,2.22,17.53.65,4.55-.62,12.25,2.12,16.16,2.2,3.14,8.36,4.15,11.33,1.52,3.57-3.19,2.58-8.13,2.23-12.26-.69-7.87-1.39-15.86-.86-24.32C81.38,261.27,83.91,254.07,81.31,246.71Z"/><path class="cls-5" d="M91.23,269.53c-.09-5-1-9.78-1.61-14.78a14,14,0,0,1,4-12.12c2.63-2.7,7.74-5.09,11.38-2.57,4.21,2.91,4.19,9.52,4.16,14.06,0,5.64.39,11,.12,16.61-.34,7-1.53,13.76-1.91,20.83-.18,3.31,1,8.56-1,11.48-2.26,3.39-8.89,4.8-11.94,2.08-2.69-2.4-1.89-6.08-2-9.39C92,287.1,91.37,278.09,91.23,269.53Z"/><path class="cls-11" d="M67.38,296l.34.26a6.22,6.22,0,0,0,3.58,1.32,14.69,14.69,0,0,0,7.5-1.34c1.18-.54,5-3.72,4.4-.29-.2,1.06-.91,1.95-1.18,3s0,1.62-1.07,2.37A16.08,16.08,0,0,1,75.4,304c-2.42.49-6.8.37-8.69-1.56-1.14-1.17-.57-2.85-.83-4.21-.17-.91-2-2-1.1-3C65.45,294.52,66.65,295.44,67.38,296Z"/><path class="cls-12" d="M82.29,298.07C82,300.49,79.05,301.49,77,302c-3.48.89-10.59.87-11.13-4a24.73,24.73,0,0,0-3.07,4.75c-1,1.71-2,3.43-2.81,5.21-1,2-1.93,3.84-1.65,6.12.12,1.05-.09,2.49.54,3.42a6,6,0,0,0,2.76,1.53,30.67,30.67,0,0,0,12.79.74c1.46-.19,3.08-.06,4.32-1A7.1,7.1,0,0,0,81,316c1.6-3.77,4-9.44,2.77-13.57C83.46,301.3,83.49,298.69,82.29,298.07Z"/><path class="cls-13" d="M58.44,316.17s1.21,2.43,9,2.55,10.8-.53,12.12-1.88c1.83-1.88,4.17-10.34,4.48-13.18a20.81,20.81,0,0,1,0,4.23c-.28,1.39-1.9,11.35-4.68,12.45a30,30,0,0,1-11.75,1.39c-4.28-.29-8.39-1.68-9-2.9A3,3,0,0,1,58.44,316.17Z"/><path class="cls-11" d="M106.43,296l-.34.26a6.22,6.22,0,0,1-3.58,1.32,14.69,14.69,0,0,1-7.5-1.34c-1.18-.54-5-3.72-4.4-.29.2,1.06.91,1.95,1.18,3s0,1.62,1.07,2.37A16.08,16.08,0,0,0,98.41,304c2.42.49,6.81.37,8.69-1.56,1.14-1.17.57-2.85.83-4.21.17-.91,2-2,1.1-3C108.36,294.52,107.16,295.44,106.43,296Z"/><path class="cls-12" d="M91.52,298.23c.35,2.42,3.24,3.42,5.28,3.94,3.48.9,10.59.88,11.13-3.95A24.42,24.42,0,0,1,111,303c1,1.7,2,3.43,2.81,5.21,1,2,1.93,3.84,1.66,6.12-.13,1.05.09,2.49-.55,3.41a5.88,5.88,0,0,1-2.76,1.53,30.5,30.5,0,0,1-12.79.75c-1.46-.19-3.08-.06-4.32-1a7.05,7.05,0,0,1-2.25-2.8c-1.61-3.77-4-9.44-2.78-13.57C90.35,301.46,90.33,298.85,91.52,298.23Z"/><path class="cls-13" d="M115.37,316.17s-1.21,2.43-9,2.55-10.8-.53-12.12-1.88c-1.83-1.88-4.17-10.34-4.48-13.18a20.81,20.81,0,0,0,0,4.23c.28,1.39,1.9,11.35,4.68,12.45a30,30,0,0,0,11.75,1.39c4.28-.29,8.39-1.68,9-2.9A3,3,0,0,0,115.37,316.17Z"/><path class="cls-13" d="M64.58,304.72c-.58.29-.43,2.75.21,2.59a18.94,18.94,0,0,1,6.61-.54,12.35,12.35,0,0,0-7,1.35c-.35.2-.24,1.69.13,1.56a13.88,13.88,0,0,1,6.4-.52c2.37.29,4.5,1.37,6.82,1.65,1,.13.62-2.49.44-2.9a5.6,5.6,0,0,0-1.64-2.16,4.39,4.39,0,0,1,2.24,1.57c.69,1,1.19-2.14.62-2.89C76.39,300.38,68.28,302.91,64.58,304.72Z"/><path class="cls-13" d="M109.36,308.12a12.21,12.21,0,0,0-6.71-1.37,19.39,19.39,0,0,1,6.44.56c.62.16.67-2.31.08-2.59-3.73-1.83-11.81-4.33-14.85-.28-.57.76.05,3.89.76,2.87a4.26,4.26,0,0,1,2.09-1.52,5.66,5.66,0,0,0-1.62,2.14c-.19.45-.4,3,.58,2.88,2-.24,3.84-1.19,5.84-1.51a14.6,14.6,0,0,1,7.25.35C109.74,309.83,109.74,308.33,109.36,308.12Z"/><path class="cls-5" d="M72.3,161.78c2.81,4.64,2.63,11.67.31,16.39-.89,1.8-2.65,5.11-5,5.26-4.31.27-2.78-6.41-2.14-10S70.63,159,72.3,161.78Z"/><path class="cls-5" d="M97.68,161.66c-2.81,4.65-2.93,12.37-.62,17.09.9,1.8,2.65,5.26,5,5.26,4.29,0,2.78-6.41,2.15-10S99.35,158.89,97.68,161.66Z"/><path class="cls-12" d="M114,232.89a30.6,30.6,0,0,0-1-3.43,70.17,70.17,0,0,1-3.64-16.82c-.74-7.27-2.06-14.42-2.92-21.7-.19-1.62-2.06-10.71-1.32-11.42a2.92,2.92,0,0,1-4.26-.13c-3.86-3.94-3.21-13.12-2.11-18-1.75-.59-4.11-2.19-6-1.9.19,1.54,1.17,3.53.43,5.05a5.14,5.14,0,0,1-2.36,2.18,13.26,13.26,0,0,1-9.74,1.23c-4.07-1-4.5-4.55-3.84-8.5-2.07-.18-4.57,1.1-6.28,2.18,3.94,4.63,2.55,14.84-1.91,18.67a3.72,3.72,0,0,1-4.36.67c.56.27-1,17.75-1,19.31a138.49,138.49,0,0,1-1.84,21.23c-1.79,10-.59,21-4.21,30.52-1.29,3.38-2.68,6.08,2,7.71,4.85,1.69,10.77-.73,15.72-1.08,6-.42,11.94-.7,17.59,1.63,8.31,3.43,16.45-1.54,24.18-4.63l3.11-1.23c-.66-3.85-2.54-7.22-3.76-10.85S114.88,236.42,114,232.89Z"/><path class="cls-5" d="M119.22,192.4c0-.1-.1-.2-.14-.3-3.21-7-6.07-14.58-10.19-21-.93-1.47-8.84-11.8-9.65-7-1.53,9,2.9,15.5,4.91,21.12,4.65,13,15.37,25.87,13.31,40.43a38,38,0,0,1-1.45,6c-.45,1.4-2.86,3.44-2.26,5.06,1,2.65,4.68,0,5.43-1.45.52-1,.78-2.47,1.76-3.16,1.15-.81,2,.67,2.66,1.31a42.6,42.6,0,0,1,3.66,3.58,7.8,7.8,0,0,0,2.53,2.22,2,2,0,0,0,2.62-1.58c.37-1.44-.63-2.36-1.59-3.23-1.27-1.16-2.69-2.36-3.86-3.6a64.53,64.53,0,0,1,5.45,4.24c1,1,2,2.08,3.4,1,.63-.48,1.43-1.46,1.16-2.31-.35-1.06-1.84-2-2.67-2.59-1.72-1.32-3.52-2.53-5.31-3.75a31.18,31.18,0,0,0,4.33,2.34c1.46.66,3.77,2.24,4.86.16.84-1.6-.77-2.12-2-2.62a31.47,31.47,0,0,0-5.08-1.83c1.26-.21,2.56.08,3.8-.14,3.11-.56,1.07-3.11-1.33-2.74a38.8,38.8,0,0,1-7.39.2,65.12,65.12,0,0,0-.19-7.52C125.31,207.36,122.45,199.51,119.22,192.4Z"/><path class="cls-5" d="M55.78,208.2c3.06-7.9,7.75-15.07,10.61-23.06,2-5.62,6.44-12.15,4.92-21.12-.81-4.76-8.72,5.57-9.65,7-4.12,6.46-7,14-10.19,21l-.14.3c-3.23,7.11-6.09,15-6.76,22.8-.19,2.31-1,6.55-1,10.06l-.74.12a36.7,36.7,0,0,0-8,2.25c-.89.38-1.67.93-2.54,1.33-.5,1.63,0,3.44,2,2.8-1.72,1.31-1.1,5.3,1.5,4-.43.22-.35,1.3-.2,1.64a2.32,2.32,0,0,0,1,1,2.48,2.48,0,0,0,2.52-.2c-.39.93.56,1.72,1.36,2a3.57,3.57,0,0,0,2.9-.75c2.16-1.86,3.79-6.49,7.4-5,2.13.87,2.82,4.18,5.66,3,3.44-1.43-1.39-4.66-2.84-5.65.41.28.33-4.21-.07-4.84a4.28,4.28,0,0,0-.68-.78,19.42,19.42,0,0,1-.26-5.81A55.68,55.68,0,0,1,55.78,208.2Z"/><g class="cls-2"><path class="cls-3" d="M105.56,14.69c-17.21-5.46-37.6-1.9-53.86,5a70.39,70.39,0,0,0-21,13.76A75.57,75.57,0,0,0,20.88,44.1c-2.4,3.34-3.5,9.91-6.08,12.56C21.47,49.8,34.31,44,43.88,43.93,32,51.87,17.09,59.68,12.51,74.37c5.62-6,14.47-11.28,22.56-12.85-5.52,6.14-11.39,11.21-14.83,19.2a104.51,104.51,0,0,1,26.63-15.1c21.37-8.32,48.92-3.4,66.05-21.32-12,3.71-23.62-3.24-35.66-1.39,2.07-.32,8-6.68,10.57-8,4.26-2.13,8.94-3.34,13.22-5.4-7.24-2.46-18.83-5.14-26-1C83,20.8,95,14.57,105.56,14.69Z"/></g><g class="cls-2"><path class="cls-3" d="M156,82.35c-3-5.24-10.67-5.72-13.93-12.6a58.54,58.54,0,0,1-5.52-26.3c2.32,3.24,4.63,6.94,7.88,10.19,0-10.19-3.71-19-8.34-27.79,12,10.19,16.67,25,19.45,39.83-2.31-1.86-4.63-3.71-7.41-4.63C148.12,68.46,152.29,75.87,156,82.35Z"/></g><path class="cls-14" d="M18.35,98.93s-26-45.2,14.39-72.57S117.22,8.2,132.44,18,165,47.64,156.31,100c0,0,22.66-47.73-12.45-79S57.49,1,27.78,20.83,2,79.84,18.35,98.93Z"/><path class="cls-15" d="M117,10c6.65-4.2,20,8.52,21.77,11.46,5.33-4,3.07-23.13-.78-21.35C130.43,3.57,123.73,5.73,117,10Z"/><path class="cls-15" d="M159.39,42.75c1-7.8-14.9-14.62-18-15,1.28-6.51,18.23-12.46,18.23-8.22C159.58,27.81,160.36,34.8,159.39,42.75Z"/><path class="cls-16" d="M135.73,15.24c-4.16,2.44-6.47,5.87-4,10.38.67,1.23,8.67,8.59,9.53,8.11,4.3-2.35,11.15-4.93,7.72-10.77C146.2,18.27,140.69,11.94,135.73,15.24Z"/></g></g></svg>