<?xml version="1.0" encoding="utf-8"?>
<!-- Generator: Adobe Illustrator 22.0.1, SVG Export Plug-In . SVG Version: 6.00 Build 0)  -->
<svg version="1.1" id="Layer_1" xmlns="http://www.w3.org/2000/svg" xmlns:xlink="http://www.w3.org/1999/xlink" x="0px" y="0px"
	 viewBox="0 0 612 792" style="enable-background:new 0 0 612 792;" xml:space="preserve">
<style type="text/css">
	.st0{font-family:'KrinkesRegularPERSONALUSE';}
	.st1{font-size:55px;}
</style>
<path d="M173.7,399.2l-13.9-9.3v-2.7l13.9-9.3v3.4l-10.8,7.1v0.1l10.8,7.1V399.2z"/>
<path d="M184.3,398c-1.4,0-2.7-0.2-3.9-0.6c-1.2-0.4-2.3-1-3.2-1.9c-0.9-0.8-1.6-1.8-2.1-3c-0.5-1.2-0.8-2.5-0.8-4
	c0-1.5,0.3-2.8,0.8-4c0.5-1.2,1.3-2.2,2.2-3c0.9-0.8,2-1.4,3.2-1.9c1.2-0.4,2.5-0.6,3.9-0.6c1.5,0,2.8,0.3,3.9,0.8
	c1.1,0.5,2,1.1,2.8,1.8l-1.8,2.3c-0.7-0.6-1.5-1.1-2.2-1.4c-0.8-0.3-1.6-0.5-2.5-0.5c-1,0-1.9,0.2-2.7,0.5c-0.8,0.3-1.5,0.7-2.1,1.3
	c-0.6,0.6-1,1.3-1.4,2.1c-0.3,0.8-0.5,1.7-0.5,2.6c0,1,0.2,1.8,0.5,2.6c0.3,0.8,0.8,1.5,1.3,2.1s1.3,1,2.1,1.3
	c0.8,0.3,1.7,0.5,2.6,0.5c1.1,0,2.1-0.2,3-0.6c0.9-0.4,1.7-0.9,2.4-1.5l1.6,2.4c-1,0.9-2.2,1.6-3.4,2.1
	C186.9,397.8,185.6,398,184.3,398z"/>
<path d="M201.8,398c-1.2,0-2.3-0.2-3.4-0.6c-1.1-0.4-2-1-2.9-1.9c-0.8-0.8-1.5-1.8-2-3c-0.5-1.2-0.7-2.5-0.7-4c0-1.5,0.2-2.8,0.7-4
	c0.5-1.2,1.2-2.2,2-3c0.8-0.8,1.8-1.4,2.9-1.9c1.1-0.4,2.2-0.6,3.4-0.6c1.2,0,2.3,0.2,3.4,0.6c1.1,0.4,2,1,2.9,1.9s1.5,1.8,2,3
	c0.5,1.2,0.7,2.5,0.7,4c0,1.5-0.2,2.8-0.7,4c-0.5,1.2-1.2,2.2-2,3c-0.8,0.8-1.8,1.4-2.9,1.9C204.1,397.8,203,398,201.8,398z
	 M201.8,395c1.6,0,2.9-0.6,3.8-1.8c0.9-1.2,1.4-2.8,1.4-4.7c0-1.9-0.5-3.5-1.4-4.7c-0.9-1.2-2.2-1.8-3.8-1.8c-1.6,0-2.9,0.6-3.8,1.8
	c-0.9,1.2-1.4,2.8-1.4,4.7c0,1.9,0.5,3.5,1.4,4.7C198.9,394.4,200.2,395,201.8,395z"/>
<path d="M220.8,398.2c-1.2,0-2.3-0.2-3.2-0.6c-0.9-0.4-1.8-1-2.5-1.9c-0.7-0.8-1.2-1.8-1.6-3s-0.6-2.5-0.6-4c0-1.5,0.2-2.8,0.7-4
	c0.5-1.2,1.1-2.2,1.8-3c0.8-0.8,1.6-1.4,2.6-1.9s2-0.7,3-0.7c1.1,0,2,0.2,2.8,0.6c0.8,0.4,1.6,0.9,2.3,1.7h0.1l-0.2-3.2v-6.7h3.7
	v26.2h-3l-0.3-2.2h-0.1c-0.7,0.7-1.6,1.3-2.6,1.9C222.9,398,221.9,398.2,220.8,398.2z M221.6,395.2c1.6,0,3.1-0.8,4.6-2.4v-8.6
	c-0.7-0.7-1.4-1.2-2.1-1.4c-0.7-0.3-1.4-0.4-2.1-0.4c-0.7,0-1.4,0.1-2,0.4c-0.6,0.3-1.2,0.7-1.6,1.3c-0.5,0.6-0.8,1.2-1.1,2
	c-0.3,0.8-0.4,1.7-0.4,2.7c0,2.1,0.4,3.7,1.3,4.8C218.9,394.7,220.1,395.2,221.6,395.2z"/>
<path d="M241.3,398c-1.4,0-2.7-0.2-3.8-0.6c-1.2-0.4-2.2-1-3.1-1.9c-0.9-0.8-1.6-1.8-2.1-3c-0.5-1.2-0.8-2.5-0.8-4
	c0-1.5,0.3-2.8,0.8-4c0.5-1.2,1.2-2.2,2.1-3c0.9-0.8,1.8-1.4,2.9-1.9c1.1-0.4,2.3-0.6,3.5-0.6c1.3,0,2.5,0.2,3.6,0.6
	c1,0.4,1.9,1,2.6,1.8c0.7,0.8,1.2,1.7,1.6,2.7c0.4,1,0.6,2.2,0.6,3.5c0,0.4,0,0.8,0,1.1c0,0.3-0.1,0.6-0.1,0.9h-13.8
	c0.2,1.9,0.9,3.3,2.1,4.2c1.2,0.9,2.7,1.4,4.5,1.4c1,0,1.9-0.1,2.8-0.4c0.8-0.3,1.7-0.7,2.5-1.2l1.3,2.3c-0.9,0.6-2,1.1-3.2,1.5
	C244,397.8,242.7,398,241.3,398z M240.9,381.9c-0.7,0-1.3,0.1-2,0.3c-0.6,0.2-1.2,0.5-1.7,0.9c-0.5,0.4-0.9,0.9-1.3,1.6
	c-0.3,0.6-0.6,1.3-0.7,2.1h10.5c-0.1-1.7-0.6-2.9-1.5-3.7C243.4,382.4,242.3,381.9,240.9,381.9z"/>
<path d="M250.1,399.2v-3.4l10.8-7.1v-0.1l-10.8-7.1v-3.4l13.9,9.3v2.7L250.1,399.2z"/>
<text transform="matrix(1 0 0 1 268.6001 398.2391)" class="st0 st1">Rookies2</text>
</svg>
